<?xml version="1.0" encoding="UTF-8"?><svg id="Layer_1" xmlns="http://www.w3.org/2000/svg" xmlns:xlink="http://www.w3.org/1999/xlink" viewBox="0 0 74.3 46.62"><defs><style>.cls-1{fill:url(#linear-gradient-2);}.cls-2{fill:url(#linear-gradient);}</style><linearGradient id="linear-gradient" x1="14.38" y1="8.93" x2="66.92" y2="61.47" gradientUnits="userSpaceOnUse"><stop offset="0" stop-color="#ff9820"/><stop offset=".42" stop-color="#ffce04"/><stop offset=".49" stop-color="gold"/></linearGradient><linearGradient id="linear-gradient-2" x1="59.27" y1="-.38" x2="72.74" y2="12.08" gradientUnits="userSpaceOnUse"><stop offset="0" stop-color="#ff9820"/><stop offset=".29" stop-color="#ffb610"/><stop offset=".57" stop-color="gold"/></linearGradient></defs><path class="cls-2" d="M72.05,23.55c-1.26-1.88-3.01-3.45-5.21-4.65-1.85-1.01-3.69-1.59-5.06-1.91-.42-1.74-1.23-4.28-2.77-6.85C56.44,5.88,51.37.67,41.7.06c-.59-.04-1.18-.06-1.75-.06-7.82,0-12.04,3.52-14.19,6.47-.91,1.24-1.53,2.48-1.95,3.55-.86-.13-1.86-.22-2.93-.22-3.56,0-6.52,1.08-8.54,3.13-1.91,1.92-3.2,4.26-3.73,6.75-.09.41-.15.8-.19,1.16-.95.47-2.12,1.16-3.29,2.11C1.56,25.83-.2,29.67.02,34.06c.22,4.41,2.27,7.96,5.94,10.29,2.6,1.65,5.1,2.19,5.38,2.23l.22.03h.22s48.86,0,48.86,0h.1s.1,0,.1,0c.34-.02,3.39-.26,6.54-2.13,3.04-1.8,6.7-5.45,6.92-12.56.1-3.18-.66-5.99-2.24-8.36ZM14.43,15c1.75-1.77,4.24-2.26,6.45-2.26,2.71,0,4.99.73,4.99.73,0,0,1.33-10.53,14.07-10.53.5,0,1.03.02,1.57.05,16.24,1.03,17.74,16.54,17.74,16.54,0,0,4.67.42,8.21,3.31-3.47,3.22-4.95,5.19-12.77,5.75-8.65.61-7.47,3.95-7.47,3.95l-4.05-8.98h5.79c.14-2.85-.87-5.65-5.31-5.65h-8.49l-6.56,14.62s1.96-3.31-6.69-3.95c-7.69-.55-7.58-2.69-10.61-5.88-.06-.58-.26-4.3,3.13-7.72Z"/><path class="cls-1" d="M61.79,3.73h2.59v.64h-.93v2.38h-.74v-2.38h-.93v-.64ZM67.05,3.73l-.77,2.03-.77-2.03h-.93v3.03h.7v-2l.73,2h.54l.73-2v2h.7v-3.03h-.93Z"/></svg>
