<svg xmlns="http://www.w3.org/2000/svg" viewBox="-.005 -.005 1024 1039.657">
  <g transform="translate(540 540)"/>
  <g transform="translate(540 540)"/>
  <path fill="none" d="M-.005-.005H98.78V98.78H-.005z" vector-effect="non-scaling-stroke"/>
  <path fill="#fff" fill-rule="evenodd" d="M744.151 815.498c-52.086 71.967-120.038 139.008-208.671 192.21a5.33 5.33 0 0 1-3.784 0c-88.55-53.253-156.462-120.289-208.538-192.21H81.925c-4.255 0-7.557-4.132-6.144-8.253l80.323-268.81a6.5 6.5 0 0 1 6.144-4.593h28.682c-38.139-137.324-38.825-249.477-38.61-268.81 0-1.828.942-3.21 2.831-3.21C323.804 248.51 508.533 81.081 531.215 59.976a3.25 3.25 0 0 1 4.726 0C558.617 81.081 743.342 248.51 912.01 261.817c1.413 0 2.831 1.382 2.831 3.21.215 19.318-.471 131.497-38.564 268.81h29.117c2.831 0 5.673 1.828 6.144 4.593l80.317 268.81c1.423 4.132-1.413 8.253-6.139 8.253z" vector-effect="non-scaling-stroke"/>
  <path fill="#fff" d="m535.572 1007.688 13.809 28.452 1.26-.614 1.198-.722zm208.671-192.205v-31.621h-16.148l-9.467 13.087zm-212.449 192.205-16.297 27.105 3.108 1.879 3.446 1.106zm-208.532-192.2 25.615-18.545-9.467-13.076h-16.148zm-247.383-8.259 29.906 10.266.205-.609.184-.609zm80.323-268.81-29.906-10.266-.205.609-.184.62zm34.821-4.593v31.621h41.6l-11.131-40.084zm-38.61-268.805 31.611.358v-.358zm2.831-3.21v31.621h1.249l1.249-.102zM531.313 59.97l21.54 23.148.246-.225.236-.236zm4.726 0-22.036 22.687.246.236.246.225zm376.069 201.841-2.478 31.519 1.239.102h1.249zm2.831 3.21h-31.621v.358zm-38.564 268.81-30.469-8.453-11.116 40.069h41.585zm35.251 4.593-31.165 5.345.328 1.879.538 1.818zm80.323 268.81-30.3 9.052.184.609.205.609zm-440.11 227.569c92.677-55.613 163.692-125.727 218.01-200.781l-51.231-37.084c-49.859 68.89-114.739 132.864-199.327 183.624zm-29.793 2.975c5.919 1.915 16.44 3.635 27.32-1.638l-27.617-56.888a28.16 28.16 0 0 1 12.093-2.831 25.1 25.1 0 0 1 7.67 1.188zM297.647 834.022c54.298 74.998 125.271 145.085 217.846 200.75l32.589-54.195c-84.516-50.826-149.361-114.806-199.214-183.649zm25.615-50.166H82.022v63.237h241.239zm-241.239 0c15.13 0 30.126 15.078 23.762 33.633l-59.817-20.526c-9.196 26.803 12.416 50.145 36.05 50.145zm24.156 32.42 80.323-268.81-60.6-18.104-80.323 268.81zm79.928-267.592a25.19 25.19 0 0 1-23.762 16.768v-63.236c-17.7 0-31.176 11.745-36.05 25.943zm-23.762 16.768h28.682v-63.236h-28.682zm-41.539-300.79c-.236 21.043.548 136.428 39.757 277.622l60.933-16.927c-37.059-133.448-37.652-242.376-37.453-259.983zm34.452-34.478a34.25 34.25 0 0 0-26.527 12.436 35.23 35.23 0 0 0-7.926 22.405h63.237c0 4.111-1.034 11.167-6.513 17.812a28.98 28.98 0 0 1-22.282 10.588zM509.773 36.818c-10.67 9.938-61.082 55.772-129.137 100.593-68.889 45.358-151.721 86.876-227.876 92.887l4.977 63.048c92.503-7.296 186.368-56.151 257.679-103.101 72.141-47.503 125.435-95.939 137.436-107.105zm48.292.461a35.07 35.07 0 0 0-24.392-9.969 35.02 35.02 0 0 0-24.392 9.969l44.058 45.368a28.26 28.26 0 0 1-19.661 7.905 28.26 28.26 0 0 1-19.661-7.905zm356.531 193.004c-76.155-6.006-158.986-47.514-227.876-92.887-68.055-44.81-118.467-90.655-129.137-100.582l-43.08 46.305c12.006 11.167 65.295 59.602 137.436 107.105 71.311 46.956 165.176 95.816 257.679 103.101zm31.974 34.739c0-16.988-13.353-34.842-34.452-34.842v63.237c-18.258 0-28.785-15.078-28.785-28.411zM906.859 542.29c39.158-141.184 39.941-256.579 39.711-277.622l-63.237.722c.205 17.597-.404 126.556-37.422 260.004zm-30.469 23.168h29.117v-63.237H876.39zm29.117 0a24.68 24.68 0 0 1-14.438-4.639 26.42 26.42 0 0 1-10.578-17.039l62.326-10.701c-3.784-22.036-23.654-30.858-37.309-30.858zm-24.156-17.981 80.323 268.81 60.6-18.104-80.323-268.81zm80.696 270.024a25.5 25.5 0 0 1 3.538-23.148 25.19 25.19 0 0 1 20.229-10.486v63.237c25.907 0 44.677-25.006 36.055-50.145zm23.762-33.633H744.243v63.237h241.572z" vector-effect="non-scaling-stroke"/>
  <path d="M535.552 1007.698c376.059-225.69 379.843-700.928 379.372-742.666 0-1.828-1.413-3.21-2.831-3.21C743.425 248.51 558.711 81.081 536.024 59.976a3.25 3.25 0 0 0-4.726 0C508.622 81.081 323.897 248.51 155.229 261.817c-1.889 0-2.831 1.382-2.831 3.21-.471 41.743 3.313 516.516 379.372 742.666a5.27 5.27 0 0 0 3.773 0" vector-effect="non-scaling-stroke"/>
  <path fill="#e6e6e6" d="M534.159 961.408c355.758-211.922 342.999-672.02 342.999-672.02-162.524-11.008-342.999-183.496-342.999-183.496S353.69 278.83 191.165 289.388c-.471 0-12.759 459.633 342.994 672.02" vector-effect="non-scaling-stroke"/>
  <path d="m534.118 962.877-.942-.456c-184.253-109.635-267.878-287.16-305.664-416.522-41.103-139.904-38.272-255.503-38.272-256.881v-1.372h1.413c160.148-10.547 340.618-181.658 342.047-183.04l.942-.922.942.922c1.889 1.828 182.354 172.477 342.052 183.035h1.413v1.372c0 1.382 2.831 116.972-38.272 256.881-37.791 129.362-121.421 306.432-305.664 416.522zm-342.051-672.02c0 13.307-.471 122.936 38.272 254.587 37.791 128.44 120.955 304.589 303.309 414.234 182.84-109.189 265.989-285.338 303.309-414.244 38.272-131.656 38.272-241.746 38.272-254.587-154.491-11.008-326.451-168.817-341.581-183.035-14.643 14.213-187.09 172.012-341.586 183.035z" vector-effect="non-scaling-stroke"/>
  <path d="M985.923 815.483H82.145c-4.255 0-7.557-4.132-6.144-8.253l80.317-268.81a6.5 6.5 0 0 1 6.144-4.582H905.62c2.831 0 5.668 1.828 6.144 4.582l80.323 268.81c1.413 4.132-1.413 8.253-6.149 8.253z" vector-effect="non-scaling-stroke"/>
  <path fill="#fff" d="M418.422 594.35v32.108h-33.541v127.519h-55.752V626.458h-33.075V594.35zm147.4 0 32.128 159.636h-57.631l-2.831-28.897h-20.311l-3.302 28.897h-58.108l28.815-159.636zm-29.763 102.758c-2.831-17.889-5.668-40.361-8.504-66.98-5.668 30.735-9.446 52.746-10.87 66.98zM769.347 594.35l-32.128 72.018 35.43 87.619h-58.107l-22.676-68.352v68.352h-56.218V594.351h56.218v61.921l25.047-61.921z" vector-effect="non-scaling-stroke"/>
  <path d="M467.261 198.139c-73.277.538-153.979 58.993-144.712 145.981 2.975 27.93 12.815 44.058 36.07 54.646 25.108 11.443 39.434 37.724 34.862 78.106-6.871 3.374-12.037 7.624-13.23 13.839 5.212-.113 10.332-.215 15.621 3 14.06 8.556 21.642 18.924 29.716 35.768 1.188 2.468 5.663 1.961 5.75-2.125.123-5.852-1.28-12.073-3.615-18.621-2.043-5.75 2.115-5.524 4.787-4.224 4.424 2.156 11.3 6.523 21.012 9.062 3.727.978 4.147-2.683 3.615-4.828-1.29-5.202-7.613-7.511-16.957-13.297-3.333-2.063-.64-6.728 3.569-5.77l13.993 1.674c2.324.527 3.159-4.224.609-5.448-9.815-4.705-19.978-6.984-37.248-5.391-8.028-20.239-20.618-42.604-10.839-56.474 8.735-12.396 21.581-14.341 27.064 30.075-3.456 2.145-7.762 3.482-7.834 9.006 4.977-1.961 7.752-.968 10.23 0 12.385 4.838 24.53 15.094 36.634 25.8 2.58 2.278 5.821-1.188 4.828-4.178-1.485-4.49-5.571-7.368-10.23-13.839-2.237-3.108 3.482-4.874 7.526-4.751 9.58.271 15.821 5.719 24.325 7.762 3.098.742 6.738-1.362 4.787-4.787-2.406-4.209-8.996-6.308-13.261-9.277-3.011-2.094-2.089-4.931 1.864-4.562 2.693.246 5.862 1.572 9.61 1.224 6.871-.64 5.335-4.951-.609-6.615-13.158-3.671-27.581-4.367-42.644-3.615-30.31-5.78-21.821-58.701 0-62.49 20.449-3.548 43.54-9.216 69.1-22.231 22.6-3.748 44.831-8.607 64.266-23.404 33.265-10.004 77.373 11.136 141.235 103.511 2.714 3.932 10.941 6.871 6.584-4.393-10.993-28.436-47.145-64.543-63.708-91.336-17.004-27.505-9.917-42.348-27.628-63.089-14.746-17.275-32.85-17.843-53.478-12.006-16.225 4.582-27.131-4.915-36.634-21.632-20.306-35.692-56.668-51.323-95.043-51.041m162.775 95.196a7.66 7.66 0 0 1 6.666 11.469 7.68 7.68 0 0 1-6.625 3.85 7.66 7.66 0 0 1-6.666-11.469 7.68 7.68 0 0 1 6.625-3.85" vector-effect="non-scaling-stroke"/>
  <path d="M467.246 900.572v-75.663h14.863l30.966 50.529v-50.529h14.193v75.663h-15.329l-30.5-49.341v49.341Zm69.601 0v-13.778l39.741-49.08h-35.251v-12.8h55.378v11.873l-41.446 51.041h43.044v12.749Z" style="text-transform:uppercase;text-wrap-mode:nowrap"/>
</svg>
