<?xml version="1.0" encoding="UTF-8"?><svg id="Layer_1" xmlns="http://www.w3.org/2000/svg" xmlns:xlink="http://www.w3.org/1999/xlink" viewBox="0 0 377.51 46.62"><defs><style>.cls-1{fill:url(#linear-gradient);}.cls-2{fill:#fff;}.cls-3{fill:gold;}</style><linearGradient id="linear-gradient" x1="14.38" y1="8.93" x2="66.92" y2="61.47" gradientUnits="userSpaceOnUse"><stop offset="0" stop-color="#ff9820"/><stop offset=".42" stop-color="#ffce04"/><stop offset=".49" stop-color="gold"/></linearGradient></defs><path class="cls-2" d="M80.49,23.84c0-11.64,7.82-22.77,20.71-22.77,9.51,0,15.95,5.38,18.27,13.14h-5.01c-2.13-5.13-6.19-8.76-13.26-8.76-10.26,0-15.83,9.26-15.83,18.39s5.57,18.39,15.83,18.39c7.07,0,11.14-3.63,13.26-8.76h5.01c-2.31,7.76-8.76,13.14-18.27,13.14-12.89,0-20.71-11.14-20.71-22.77Z"/><path class="cls-2" d="M124.85.07h4.76v45.67h-4.76V.07Z"/><path class="cls-2" d="M134.11,29.72c0-9.13,6.51-16.77,15.39-16.77s15.39,7.63,15.39,16.77-6.51,16.77-15.39,16.77-15.39-7.63-15.39-16.77ZM160.13,29.72c0-6.44-4.13-12.64-10.64-12.64s-10.64,6.19-10.64,12.64,4.13,12.64,10.64,12.64,10.64-6.19,10.64-12.64Z"/><path class="cls-2" d="M168.77,13.71h4.75v19.02c0,5.88,2.44,9.63,7.76,9.63s8.88-3.69,8.88-9.82V13.71h4.75v32.03h-4.5v-5.38c-1.38,3.57-4.88,6.13-9.95,6.13-7.44,0-11.7-5.26-11.7-13.2V13.71Z"/><path class="cls-2" d="M225.08,45.74v-6.38c-1.56,3.94-6.01,7.13-11.32,7.13-8.45,0-14.64-7.51-14.64-16.77s6.19-16.77,14.64-16.77c5.26,0,9.7,3.19,11.2,7.13V.07h4.76v45.67h-4.63ZM214.19,17.09c-6.19,0-10.32,5.88-10.32,12.64s4.13,12.64,10.32,12.64,10.76-5.88,10.76-12.64-4.57-12.64-10.76-12.64Z"/><path class="cls-3" d="M247.89,9.92h-14.25V0h39.96v9.92h-14.25v36.69h-11.45V9.92Z"/><path class="cls-3" d="M284.7,0h12.12l18.11,46.62h-11.99l-3.2-9.26h-17.98l-3.2,9.26h-11.99L284.7,0ZM296.28,27.44l-5.53-16.05-5.53,16.05h11.05Z"/><path class="cls-3" d="M317.1,0h11.45v17.78L345.6,0h13.85l-17.12,18.18,17.78,28.44h-13.25l-12.72-20.64-5.59,5.99v14.65h-11.45V0Z"/><path class="cls-1" d="M72.05,23.55c-1.26-1.88-3.01-3.45-5.21-4.65-1.85-1.01-3.69-1.59-5.06-1.91-.42-1.74-1.23-4.28-2.77-6.85C56.44,5.88,51.37.67,41.7.06c-.59-.04-1.18-.06-1.75-.06-7.82,0-12.04,3.52-14.19,6.47-.91,1.24-1.53,2.48-1.95,3.55-.86-.13-1.86-.22-2.93-.22-3.56,0-6.52,1.08-8.54,3.13-1.91,1.92-3.2,4.26-3.73,6.75-.09.41-.15.8-.19,1.16-.95.47-2.12,1.16-3.29,2.11C1.56,25.83-.2,29.67.02,34.06c.22,4.41,2.27,7.96,5.94,10.29,2.6,1.65,5.12,2.19,5.4,2.23l.22.03h.22s48.84,0,48.84,0h.1s.1,0,.1,0c.34-.02,3.39-.26,6.54-2.13,3.04-1.8,6.7-5.45,6.92-12.56.1-3.18-.66-5.99-2.24-8.36ZM14.43,15c1.75-1.77,4.24-2.26,6.45-2.26,2.71,0,4.99.73,4.99.73,0,0,1.33-10.53,14.07-10.53.5,0,1.03.02,1.57.05,16.24,1.03,17.74,16.54,17.74,16.54,0,0,4.67.42,8.21,3.31-3.47,3.22-4.95,5.19-12.77,5.75-8.65.61-7.47,3.95-7.47,3.95l-4.05-8.98h5.79c.14-2.85-.87-5.65-5.31-5.65h-8.49l-6.56,14.62s1.96-3.31-6.69-3.95c-7.69-.55-7.58-2.69-10.61-5.88-.06-.58-.26-4.3,3.13-7.72Z"/><path class="cls-3" d="M367.62,1.21h-1.74V0h4.89v1.21h-1.74v4.49h-1.4V1.21Z"/><path class="cls-3" d="M371.11,0h1.74l1.46,3.83L375.77,0h1.74v5.7h-1.31V1.93l-1.38,3.77h-1.02l-1.38-3.77v3.77h-1.31V0Z"/></svg>